<svg width="79" height="58" viewBox="0 0 79 58" fill="none" xmlns="http://www.w3.org/2000/svg">
<path d="M15.5338 7.72C13.5604 9.8 11.2938 11.4267 8.73375 12.6C6.17375 13.7733 3.50708 14.4933 0.73375 14.76V12.12C3.93375 11.64 6.84042 10.52 9.45375 8.76C12.0671 7 14.2004 4.68 15.8538 1.8H18.5738V57H15.5338V7.72ZM58.7869 57.96C54.7869 57.96 51.5069 57.1067 48.9469 55.4C46.3869 53.64 44.3335 51.4 42.7869 48.68C41.2935 45.9067 40.2535 42.84 39.6669 39.48C39.0802 36.0667 38.7869 32.7067 38.7869 29.4C38.7869 26.0933 39.0802 22.76 39.6669 19.4C40.2535 15.9867 41.2935 12.92 42.7869 10.2C44.3335 7.42666 46.3869 5.18666 48.9469 3.48C51.5069 1.72 54.7869 0.839998 58.7869 0.839998C62.7869 0.839998 66.0669 1.72 68.6269 3.48C71.1869 5.18666 73.2135 7.42666 74.7069 10.2C76.2535 12.92 77.3202 15.9867 77.9069 19.4C78.4935 22.76 78.7869 26.0933 78.7869 29.4C78.7869 32.7067 78.4935 36.0667 77.9069 39.48C77.3202 42.84 76.2535 45.9067 74.7069 48.68C73.2135 51.4 71.1869 53.64 68.6269 55.4C66.0669 57.1067 62.7869 57.96 58.7869 57.96ZM58.7869 55.32C62.2002 55.32 65.0002 54.4933 67.1869 52.84C69.4269 51.1867 71.1602 49.08 72.3869 46.52C73.6669 43.96 74.5469 41.16 75.0269 38.12C75.5069 35.08 75.7469 32.1733 75.7469 29.4C75.7469 26.6267 75.5069 23.72 75.0269 20.68C74.5469 17.64 73.6669 14.84 72.3869 12.28C71.1602 9.72 69.4269 7.61333 67.1869 5.96C65.0002 4.30666 62.2002 3.48 58.7869 3.48C55.3202 3.48 52.4935 4.30666 50.3069 5.96C48.1202 7.61333 46.3869 9.72 45.1069 12.28C43.8802 14.84 43.0269 17.64 42.5469 20.68C42.0669 23.72 41.8269 26.6267 41.8269 29.4C41.8269 32.1733 42.0669 35.08 42.5469 38.12C43.0269 41.16 43.8802 43.96 45.1069 46.52C46.3869 49.08 48.1202 51.1867 50.3069 52.84C52.4935 54.4933 55.3202 55.32 58.7869 55.32Z" fill="#2F323B"/>
</svg>
