<?xml version="1.0" standalone="no"?>
<!DOCTYPE svg PUBLIC "-//W3C//DTD SVG 20010904//EN"
 "http://www.w3.org/TR/2001/REC-SVG-20010904/DTD/svg10.dtd">
<svg version="1.0" xmlns="http://www.w3.org/2000/svg"
 width="431.000000pt" height="115.000000pt" viewBox="0 0 431.000000 115.000000"
 preserveAspectRatio="xMidYMid meet">

<g transform="translate(0.000000,115.000000) scale(0.100000,-0.100000)"
fill="#000000" stroke="none">
<path d="M3771 989 l-93 -159 -184 0 -184 0 0 -30 0 -30 165 0 c91 0 165 -3
165 -6 0 -3 -10 -19 -21 -36 l-21 -29 -144 3 -144 3 0 -32 0 -33 126 0 c116 0
126 -1 119 -17 -16 -40 -17 -54 -2 -77 12 -18 13 -25 4 -28 -7 -2 -116 -3
-244 -2 -153 1 -230 -2 -226 -9 4 -6 1 -7 -8 -1 -17 11 -340 14 -333 3 2 -4 0
-11 -6 -14 -6 -4 -9 -1 -8 7 2 8 -9 14 -31 16 -20 2 -31 0 -27 -7 4 -5 2 -12
-4 -16 -6 -4 -7 -11 -4 -17 4 -7 2 -8 -4 -4 -7 4 -12 3 -12 -2 0 -5 25 -9 55
-8 35 1 54 5 51 12 -2 6 0 17 5 25 8 12 10 12 8 -1 -3 -27 1 -40 10 -40 6 0 8
9 6 20 -2 11 0 22 4 25 5 2 8 -3 7 -13 0 -9 3 -17 9 -17 5 0 9 5 7 12 -3 16
15 26 23 13 5 -8 11 -8 20 0 9 8 15 8 20 0 4 -6 1 -9 -5 -8 -7 2 -14 -5 -15
-14 -2 -10 1 -18 6 -18 5 0 9 6 9 13 0 7 3 8 8 2 8 -11 69 -17 91 -10 11 4 10
10 -5 28 -12 13 -13 17 -3 10 12 -10 18 -10 29 0 10 10 11 9 4 -3 -5 -8 -9
-20 -10 -26 -2 -14 119 -14 128 0 5 7 8 7 8 -1 0 -7 5 -13 11 -13 5 0 8 4 5 9
-3 4 4 17 15 27 11 10 20 14 19 9 -5 -23 1 -28 13 -11 12 16 15 16 26 3 9 -12
9 -17 0 -23 -7 -4 -9 -3 -5 4 3 6 2 13 -3 16 -5 3 -12 -1 -15 -10 -5 -13 -9
-14 -20 -5 -10 8 -16 9 -21 1 -8 -13 -14 -13 103 -14 92 -2 102 0 97 15 -7 20
10 35 21 18 5 -8 3 -9 -6 -4 -10 6 -12 4 -7 -9 4 -10 7 -20 7 -22 0 -2 5 -4
11 -4 5 0 8 4 4 9 -3 5 -1 12 5 16 6 4 8 10 6 14 -3 4 1 8 9 8 13 0 13 -3 0
-17 -8 -9 -12 -20 -8 -23 9 -10 25 -8 19 2 -3 4 3 16 13 25 20 18 30 12 26
-15 -2 -13 10 -15 70 -16 68 0 72 1 62 18 -12 19 -32 15 -20 -4 5 -9 3 -9 -8
0 -12 10 -18 10 -29 0 -12 -10 -12 -9 -2 4 6 9 9 20 5 25 -4 5 -1 3 6 -3 10
-9 18 -9 27 -2 8 7 22 -6 48 -46 21 -30 38 -64 39 -75 1 -11 5 -20 9 -20 4 0
8 -5 8 -12 0 -9 -3 -9 -12 1 -7 6 -13 17 -13 24 0 9 -412 13 -1817 15 -1382 1
-1818 -1 -1818 -10 0 -6 3 -8 7 -5 3 4 12 2 20 -4 10 -9 13 -8 13 1 0 8 3 10
6 7 4 -4 1 -13 -6 -22 -15 -18 -25 -17 135 -19 72 -1 136 2 143 7 14 11 17 31
3 22 -5 -3 -12 -2 -15 3 -2 4 6 8 19 8 19 0 22 -3 14 -17 -5 -10 -9 -19 -9
-21 0 -6 239 0 255 6 8 3 15 0 15 -7 0 -8 4 -7 9 3 11 16 4 33 -9 25 -5 -3
-11 -2 -14 3 -2 4 15 8 39 8 41 0 53 -13 30 -33 -4 -4 -5 -3 -1 4 10 18 -10
25 -24 8 -15 -18 -23 -17 137 -19 72 0 112 3 109 9 -2 6 -8 9 -13 8 -5 -1 -10
5 -10 13 0 11 6 9 23 -7 36 -34 134 -31 134 3 0 5 -4 7 -9 3 -5 -3 -12 -2 -15
3 -2 4 6 8 19 8 19 0 22 -3 14 -17 -5 -10 -9 -19 -9 -21 0 -2 28 -2 62 0 35 1
70 3 78 2 243 -6 779 -3 776 5 -2 6 -8 9 -14 8 -5 -1 -15 4 -22 12 -17 21 14
13 40 -10 16 -14 37 -19 98 -19 42 -1 83 3 90 7 15 12 16 31 0 21 -7 -4 -8 -3
-4 5 10 16 28 3 22 -17 -5 -15 3 -17 62 -14 81 3 73 3 147 -1 33 -1 66 1 73 6
14 11 17 31 3 22 -5 -3 -12 -2 -15 3 -2 4 6 8 19 8 19 0 22 -3 14 -17 -5 -10
-9 -19 -9 -21 0 -2 81 -3 180 -3 116 0 179 4 176 10 -2 6 -8 9 -13 8 -5 -1
-10 5 -10 13 0 10 7 9 24 -8 22 -21 29 -21 308 -22 157 -1 285 3 285 7 0 5 5
5 11 1 16 -9 160 -11 165 -2 3 5 13 4 22 0 9 -4 34 -7 55 -7 45 2 37 13 192
-257 l38 -67 29 15 29 15 -20 32 c-90 147 -149 262 -140 273 6 8 6 14 0 18 -5
3 -11 1 -13 -6 -3 -8 -6 -7 -10 3 -4 10 2 15 23 15 32 2 53 -26 153 -198 31
-54 60 -98 64 -98 4 1 17 6 29 13 21 12 21 13 -38 115 -33 57 -66 118 -73 137
-13 31 -13 33 5 30 10 -2 21 0 24 6 4 5 -10 9 -29 9 -32 0 -36 4 -59 53 -14
28 -26 55 -26 59 -1 4 -13 19 -26 32 -28 28 -30 43 -13 81 9 20 18 25 49 25
31 0 40 -5 57 -32 18 -28 19 -34 6 -54 -10 -15 -12 -24 -5 -29 6 -3 12 -4 12
-1 1 3 3 11 4 16 1 6 3 13 4 16 0 4 8 1 16 -6 9 -8 15 -9 15 -2 0 6 -4 13 -9
16 -9 6 -8 33 3 58 4 9 1 29 -9 47 -13 26 -22 31 -50 31 -40 0 -40 1 -19 41
13 26 20 30 52 27 28 -2 40 -10 55 -35 17 -30 17 -34 2 -57 -12 -17 -14 -36
-10 -65 6 -43 -8 -82 -27 -78 -7 1 -12 -5 -13 -13 0 -8 -6 -14 -12 -13 -6 1
-21 -9 -33 -22 l-23 -24 27 2 c16 1 33 13 45 30 l18 29 22 -36 22 -35 -23 -43
c-12 -24 -21 -47 -19 -52 1 -5 -6 -3 -15 5 -15 12 -17 12 -12 -1 2 -8 19 -16
36 -18 42 -4 63 30 36 60 -10 11 -14 19 -9 18 22 -5 29 1 15 11 -13 9 -12 10
2 5 19 -6 51 20 42 35 -3 5 -10 7 -15 3 -5 -3 -7 -9 -5 -13 3 -4 -1 -8 -8 -8
-8 0 -13 7 -11 16 1 9 8 16 15 16 7 0 15 6 18 14 3 9 0 11 -9 6 -8 -5 -11 -5
-7 -1 4 5 -4 25 -17 46 -13 20 -20 41 -15 46 4 5 11 20 15 33 5 17 4 22 -6 18
-8 -2 -12 -11 -11 -18 2 -8 0 -10 -4 -6 -15 14 -12 34 5 34 36 1 84 -74 64
-100 -14 -17 -9 -80 7 -85 7 -3 10 0 6 6 -3 5 1 12 9 16 8 3 15 11 15 17 0 8
-5 7 -17 -2 -10 -7 -15 -10 -11 -5 4 5 3 18 -3 30 -9 20 -9 20 4 3 9 -11 18
-14 21 -8 4 5 2 12 -2 15 -12 7 -9 46 6 73 11 19 9 29 -9 61 l-22 38 26 39
c15 22 27 45 27 51 0 7 4 14 8 16 4 2 20 24 34 51 15 26 21 44 15 41 -7 -4 -1
4 12 16 l24 23 -23 19 c-23 18 -23 18 -42 -12 -10 -17 -15 -36 -12 -42 4 -6 3
-8 -3 -5 -5 3 -18 -11 -28 -31 -11 -20 -28 -49 -39 -64 -10 -15 -16 -33 -13
-42 3 -8 -1 -20 -9 -26 -8 -7 -14 -18 -14 -24 0 -6 12 2 25 17 14 15 25 24 25
19 0 -5 -7 -15 -15 -22 -8 -7 -12 -16 -9 -21 3 -5 1 -8 -4 -7 -6 2 -10 -1 -10
-7 0 -5 5 -9 11 -7 6 2 4 -5 -3 -15 -8 -10 -16 -20 -18 -23 -2 -3 -2 2 -1 10
2 8 -1 15 -6 15 -6 0 -9 -3 -8 -6 1 -3 -5 -6 -13 -6 -11 0 -11 4 3 20 10 10
16 20 14 21 -8 3 11 46 20 46 6 0 3 7 -5 16 -9 8 -21 24 -26 34 -6 12 -23 20
-45 22 l-34 3 64 110 64 110 -25 13 c-13 7 -28 11 -33 8 -4 -3 -39 -60 -77
-126 -67 -116 -70 -120 -103 -120 -27 0 -32 3 -27 16 6 15 82 149 138 241 l19
32 -29 15 -28 15 -93 -160z m386 -36 c0 -9 -4 -10 -14 -2 -7 6 -13 12 -13 14
0 1 6 2 13 2 8 0 14 -6 14 -14z m-27 -37 c-5 -13 -6 -27 -2 -32 4 -4 2 -4 -5
0 -8 5 -9 14 -3 30 5 13 6 27 2 32 -4 4 -2 4 5 0 8 -5 9 -14 3 -30z m-20 -40
c8 -11 10 -17 3 -13 -15 10 -43 -30 -38 -54 3 -13 0 -17 -7 -13 -8 5 -9 1 -4
-12 5 -14 4 -16 -5 -7 -6 6 -8 17 -3 25 8 13 14 33 16 55 1 7 6 11 12 10 6 -1
9 7 8 18 -2 11 -2 18 0 15 2 -3 10 -14 18 -24z m-330 -116 c0 -26 -34 -60 -59
-60 -39 0 -43 9 -20 41 14 21 29 29 50 29 16 0 29 -5 29 -10z m-70 -125 c0 -3
-7 -16 -16 -29 -14 -22 -13 -27 5 -62 13 -23 17 -42 12 -47 -11 -11 -3 -37 10
-37 4 0 6 8 3 18 -4 9 10 -5 30 -33 l37 -50 -26 -3 c-41 -5 -52 3 -85 65 -17
32 -41 74 -52 94 -20 34 -20 36 -3 62 13 21 25 27 51 27 19 0 34 -2 34 -5z
m-999 -134 c6 10 8 7 6 -8 -1 -15 -5 -19 -13 -13 -6 6 -14 7 -18 3 -4 -4 -4 1
0 12 5 13 9 15 12 6 4 -11 6 -11 13 0z m208 -25 c0 -7 -2 -6 -6 2 -2 6 -8 10
-12 8 -4 -3 -8 1 -8 9 0 11 4 12 14 4 7 -6 13 -17 12 -23z m24 16 c15 -16 15
-19 2 -19 -8 0 -13 3 -10 5 3 3 0 11 -6 19 -17 20 -5 16 14 -5z m86 11 c-3
-21 2 -25 14 -9 12 16 15 16 26 3 9 -12 9 -17 0 -23 -7 -4 -9 -3 -5 4 3 6 2
13 -3 16 -5 3 -12 -1 -15 -10 -5 -12 -10 -14 -20 -5 -7 6 -17 7 -22 3 -4 -4
-2 1 5 11 14 18 22 22 20 10z m72 -20 c-12 -20 -14 -14 -5 12 4 9 9 14 11 11
3 -2 0 -13 -6 -23z m145 11 c-1 -8 -6 -17 -12 -21 -5 -4 -6 -4 -2 1 4 5 3 14
-2 21 -7 8 -5 12 4 12 8 0 13 -6 12 -13z m50 -6 l19 -23 -24 20 -24 20 7 -20
c5 -15 4 -17 -5 -8 -6 6 -8 16 -5 22 9 15 10 14 32 -11z m31 5 c0 -9 -4 -10
-14 -2 -7 6 -13 12 -13 14 0 1 6 2 13 2 8 0 14 -6 14 -14z m149 -9 c1 -9 0
-13 -4 -10 -3 4 -7 14 -8 22 -1 9 0 13 4 10 3 -4 7 -14 8 -22z m27 1 c-7 -21
-12 -19 -10 4 0 11 5 18 9 15 4 -3 5 -11 1 -19z m468 -102 c8 -10 9 -14 2 -10
-7 4 -16 0 -22 -10 -6 -10 -11 -13 -11 -6 0 6 5 15 10 18 6 4 8 11 5 16 -10
15 2 10 16 -8z m-3886 -11 c-3 -3 1 -12 7 -21 10 -13 10 -14 -2 -4 -11 10 -17
10 -29 0 -14 -10 -14 -10 -4 4 7 9 11 18 8 21 -3 2 2 5 10 5 8 0 13 -3 10 -5z
m35 -17 c14 -19 14 -19 -2 -6 -10 7 -18 18 -18 24 0 6 1 8 3 6 1 -2 9 -13 17
-24z m25 17 c-3 -3 0 -11 6 -19 17 -20 5 -16 -14 5 -15 16 -15 19 -2 19 8 0
13 -3 10 -5z m32 1 c-4 -3 -1 -13 6 -22 11 -14 10 -14 -5 -2 -16 12 -16 31 -1
31 4 0 3 -3 0 -7z m30 0 c-4 -3 -1 -13 6 -22 11 -14 10 -14 -5 -2 -16 12 -16
31 -1 31 4 0 3 -3 0 -7z m30 0 c-4 -3 -1 -13 6 -22 11 -14 10 -14 -5 -2 -16
12 -16 31 -1 31 4 0 3 -3 0 -7z m30 0 c-4 -3 -1 -13 6 -22 11 -14 10 -14 -5
-2 -16 12 -16 31 -1 31 4 0 3 -3 0 -7z m33 -18 c14 -19 14 -19 -2 -6 -10 7
-18 18 -18 24 0 6 1 8 3 6 1 -2 9 -13 17 -24z m61 2 c-10 -9 -11 -8 -5 6 3 10
9 15 12 12 3 -3 0 -11 -7 -18z m46 6 c0 -7 -3 -11 -5 -8 -3 3 -12 -1 -21 -8
-14 -10 -14 -10 -4 4 7 9 11 18 8 21 -3 2 1 5 8 5 8 0 14 -6 14 -14z m29 2
c-1 -8 -5 -17 -8 -21 -5 -4 -4 16 1 34 3 9 9 -1 7 -13z m27 0 c-3 -9 -8 -14
-10 -11 -3 3 -2 9 2 15 9 16 15 13 8 -4z m37 -10 c14 -18 13 -19 -1 -8 -9 7
-19 10 -23 6 -4 -4 -4 1 0 10 3 10 7 17 8 15 1 -2 8 -12 16 -23z m47 9 c0 -14
-23 -12 -37 2 -7 7 -2 10 13 10 13 0 24 -5 24 -12z m26 1 c4 -8 3 -16 -1 -19
-4 -3 -9 4 -9 15 -2 23 3 25 10 4z m123 0 c-1 -8 -5 -17 -8 -21 -5 -4 -4 16 1
34 3 9 9 -1 7 -13z m30 0 c-1 -8 -5 -17 -8 -21 -5 -4 -4 16 1 34 3 9 9 -1 7
-13z m30 0 c-1 -8 -5 -17 -8 -21 -5 -4 -4 16 1 34 3 9 9 -1 7 -13z m30 0 c-1
-8 -5 -17 -8 -21 -5 -4 -4 16 1 34 3 9 9 -1 7 -13z m27 0 c4 -8 3 -16 -1 -19
-4 -3 -9 4 -9 15 -2 23 3 25 10 4z m25 -10 c-3 -3 -9 2 -12 12 -6 14 -5 15 5
6 7 -7 10 -15 7 -18z m69 14 c-1 -4 3 -6 8 -5 6 0 9 4 8 7 -1 3 5 6 13 6 8 0
12 -3 9 -5 -3 -3 1 -12 8 -21 10 -14 10 -14 -4 -4 -10 8 -19 9 -25 3 -7 -7
-16 -4 -27 8 -14 15 -14 19 -3 19 8 0 14 -4 13 -8z m73 -14 c14 -19 14 -19 -2
-6 -10 7 -18 18 -18 24 0 6 1 8 3 6 1 -2 9 -13 17 -24z m80 0 c14 -18 13 -19
-1 -8 -9 7 -19 10 -23 6 -4 -4 -4 1 0 10 3 10 7 17 8 15 1 -2 8 -12 16 -23z
m33 17 c4 9 6 9 6 1 2 -20 -16 -24 -30 -5 -13 15 -12 16 3 4 13 -10 17 -10 21
0z m44 -9 c0 -7 -3 -11 -5 -8 -3 3 -12 -1 -21 -8 -14 -10 -14 -10 -4 4 7 9 11
18 8 21 -3 2 1 5 8 5 8 0 14 -6 14 -14z m30 10 c-4 -3 -1 -13 6 -22 11 -14 10
-14 -5 -2 -16 12 -16 31 -1 31 4 0 3 -3 0 -7z m30 0 c-4 -3 -1 -13 6 -22 11
-14 10 -14 -5 -2 -16 12 -16 31 -1 31 4 0 3 -3 0 -7z m30 -15 c2 -17 0 -19 -7
-8 -5 8 -6 18 -4 22 8 12 10 10 11 -14z m26 7 c-3 -9 -8 -14 -10 -11 -3 3 -2
9 2 15 9 16 15 13 8 -4z m30 2 c3 -8 -1 -14 -8 -14 -7 0 -11 6 -8 14 3 7 6 13
8 13 2 0 5 -6 8 -13z m33 -3 c-1 -8 -6 -17 -12 -21 -5 -4 -6 -4 -2 1 4 5 3 14
-2 21 -7 8 -5 12 4 12 8 0 13 -6 12 -13z m42 8 c10 7 14 8 10 4 -4 -5 -2 -16
4 -25 10 -13 10 -14 -2 -4 -8 8 -18 9 -25 3 -7 -6 -11 -2 -12 13 0 12 1 16 4
9 4 -10 8 -10 21 0z m39 1 c-4 -3 -1 -13 6 -22 11 -14 10 -14 -5 -2 -16 12
-16 31 -1 31 4 0 3 -3 0 -7z m31 -3 c-2 -5 2 -9 7 -7 6 1 9 5 8 8 -1 3 5 6 13
6 11 0 11 -4 -2 -19 -13 -13 -20 -15 -30 -7 -8 6 -11 15 -8 20 7 12 15 11 12
-1z m48 -18 c-17 -16 -18 -16 -5 5 7 12 15 20 18 17 3 -2 -3 -12 -13 -22z m51
11 c0 -7 -3 -11 -5 -8 -3 3 -12 -1 -21 -8 -14 -10 -14 -10 -4 4 7 9 11 18 8
21 -3 2 1 5 8 5 8 0 14 -6 14 -14z m29 2 c-1 -8 -5 -17 -8 -21 -5 -4 -4 16 1
34 3 9 9 -1 7 -13z m27 0 c-3 -9 -8 -14 -10 -11 -3 3 -2 9 2 15 9 16 15 13 8
-4z m34 8 c-4 -3 -1 -13 6 -22 10 -14 10 -14 -4 -4 -9 7 -20 9 -25 5 -4 -4 -2
1 5 11 7 9 16 17 19 17 3 0 2 -3 -1 -7z m30 -15 c2 -17 0 -19 -7 -8 -5 8 -6
18 -4 22 8 12 10 10 11 -14z m26 7 c-3 -9 -8 -14 -10 -11 -3 3 -2 9 2 15 9 16
15 13 8 -4z m30 2 c3 -8 -1 -14 -8 -14 -7 0 -11 6 -8 14 3 7 6 13 8 13 2 0 5
-6 8 -13z m46 5 c9 7 13 8 9 4 -4 -5 -2 -16 5 -25 10 -14 10 -14 -4 -4 -10 8
-19 9 -27 3 -7 -6 -10 -7 -7 -4 3 4 -1 14 -7 23 -10 13 -10 14 2 4 10 -10 17
-10 29 -1z m39 -2 c-2 -5 2 -9 7 -7 6 1 9 5 8 8 -1 3 5 6 13 6 8 0 12 -3 9 -5
-3 -3 1 -12 8 -21 10 -14 10 -14 -5 -3 -11 9 -18 10 -23 2 -5 -8 -11 -8 -21 1
-7 6 -11 15 -8 20 7 12 15 11 12 -1z m71 -2 c4 7 12 3 20 -9 10 -17 10 -20 -1
-13 -7 5 -17 9 -22 9 -5 0 -10 6 -12 13 -2 8 0 8 3 1 4 -8 7 -8 12 -1z m103
-20 c-8 -8 -9 -4 -5 13 4 13 8 18 11 10 2 -7 -1 -18 -6 -23z m48 27 c0 -2 -6
-8 -13 -14 -10 -8 -14 -7 -14 2 0 8 6 14 14 14 7 0 13 -1 13 -2z m30 -20 c11
-16 11 -18 0 -8 -11 10 -17 10 -28 0 -13 -10 -14 -9 -1 10 7 12 14 21 14 20 0
-1 7 -11 15 -22z m25 17 c-3 -3 0 -11 6 -19 17 -20 5 -16 -14 5 -15 16 -15 19
-2 19 8 0 13 -3 10 -5z m32 1 c-4 -3 -1 -13 6 -22 11 -14 10 -14 -5 -2 -16 12
-16 31 -1 31 4 0 3 -3 0 -7z m79 -15 c12 -14 13 -18 3 -10 -9 6 -18 10 -21 7
-2 -3 -5 2 -5 10 0 19 0 19 23 -7z m29 2 c10 -11 16 -20 13 -20 -3 0 -13 9
-23 20 -10 11 -16 20 -13 20 3 0 13 -9 23 -20z m30 0 c10 -11 16 -20 13 -20
-3 0 -13 9 -23 20 -10 11 -16 20 -13 20 3 0 13 -9 23 -20z m26 3 c13 -16 12
-17 -3 -4 -17 13 -22 21 -14 21 2 0 10 -8 17 -17z m34 -3 c10 -11 16 -20 13
-20 -3 0 -13 9 -23 20 -10 11 -16 20 -13 20 3 0 13 -9 23 -20z m30 0 c10 -11
16 -20 13 -20 -3 0 -13 9 -23 20 -10 11 -16 20 -13 20 3 0 13 -9 23 -20z m38
12 c4 9 6 9 6 1 2 -20 -16 -24 -30 -5 -13 15 -12 16 3 4 13 -10 17 -10 21 0z
m37 -17 c14 -19 14 -19 -2 -6 -10 7 -18 18 -18 24 0 6 1 8 3 6 1 -2 9 -13 17
-24z m80 0 c14 -18 13 -19 -1 -8 -9 7 -19 10 -23 6 -4 -4 -4 1 0 10 3 10 7 17
8 15 1 -2 8 -12 16 -23z m25 5 c10 -11 16 -20 13 -20 -3 0 -13 9 -23 20 -10
11 -16 20 -13 20 3 0 13 -9 23 -20z m38 12 c4 9 6 9 6 1 2 -20 -16 -24 -30 -5
-13 15 -12 16 3 4 13 -10 17 -10 21 0z m42 0 c-3 -3 1 -12 7 -21 10 -13 10
-14 -2 -4 -11 10 -17 10 -29 0 -14 -10 -14 -10 -4 4 7 9 11 18 8 21 -3 2 2 5
10 5 8 0 13 -3 10 -5z m35 -17 c14 -19 14 -19 -2 -6 -10 7 -18 18 -18 24 0 6
1 8 3 6 1 -2 9 -13 17 -24z m25 17 c-3 -3 0 -11 6 -19 17 -20 5 -16 -14 5 -15
16 -15 19 -2 19 8 0 13 -3 10 -5z m32 -14 c2 -17 0 -19 -7 -8 -5 8 -6 18 -4
22 8 12 10 10 11 -14z m26 7 c-3 -9 -8 -14 -10 -11 -3 3 -2 9 2 15 9 16 15 13
8 -4z m38 -17 c-10 -11 -11 -9 -5 7 7 18 6 19 -12 5 -18 -14 -18 -14 -5 3 10
12 17 15 25 7 7 -7 6 -14 -3 -22z m74 12 c10 -11 16 -20 13 -20 -3 0 -13 9
-23 20 -10 11 -16 20 -13 20 3 0 13 -9 23 -20z m38 12 c3 7 4 3 4 -9 -1 -13
-2 -23 -3 -23 0 0 -9 10 -20 22 -13 16 -14 19 -2 10 13 -10 17 -10 21 0z m30
-7 c4 -8 3 -16 -1 -19 -4 -3 -9 4 -9 15 -2 23 3 25 10 4z m50 -5 c6 -8 8 -11
3 -7 -5 4 -16 1 -25 -5 -9 -7 -13 -8 -9 -4 4 5 3 15 -3 22 -15 18 18 12 34 -6z
m42 10 c5 8 10 8 20 0 10 -8 15 -8 20 0 5 8 10 9 18 1 7 -7 14 -7 23 0 8 7 14
7 19 -1 5 -8 11 -8 19 -1 9 8 13 7 13 -4 0 -8 -3 -13 -5 -10 -3 3 -11 0 -19
-7 -8 -6 -13 -7 -11 -2 2 5 -1 9 -7 9 -5 0 -9 -4 -7 -10 2 -5 -5 -2 -15 8 -18
16 -20 16 -37 -1 -9 -9 -16 -12 -15 -7 4 24 -3 27 -23 9 -13 -10 -20 -15 -16
-10 4 5 2 16 -5 25 -10 14 -10 14 5 3 11 -9 18 -10 23 -2z m161 -5 c-1 -8 -5
-17 -8 -21 -5 -4 -4 16 1 34 3 9 9 -1 7 -13z m30 0 c-1 -8 -5 -17 -8 -21 -5
-4 -4 16 1 34 3 9 9 -1 7 -13z m30 0 c-1 -8 -5 -17 -8 -21 -5 -4 -4 16 1 34 3
9 9 -1 7 -13z m30 0 c-1 -8 -5 -17 -8 -21 -5 -4 -4 16 1 34 3 9 9 -1 7 -13z
m30 0 c-1 -8 -5 -17 -8 -21 -5 -4 -4 16 1 34 3 9 9 -1 7 -13z m30 0 c-1 -8 -5
-17 -8 -21 -5 -4 -4 16 1 34 3 9 9 -1 7 -13z m45 -2 c7 -10 9 -15 5 -11 -5 4
-15 3 -22 -3 -11 -9 -13 2 -5 29 2 6 10 1 22 -15z m45 8 c8 7 14 7 19 -1 5 -8
11 -8 19 -1 10 8 18 5 32 -12 l19 -22 -22 18 c-15 13 -23 15 -28 7 -5 -8 -10
-9 -18 -1 -8 8 -17 6 -31 -7 -12 -9 -18 -13 -14 -8 4 5 2 16 -4 25 -10 13 -10
14 2 4 9 -9 17 -9 26 -2z m99 -11 c10 -11 16 -20 13 -20 -3 0 -13 9 -23 20
-10 11 -16 20 -13 20 3 0 13 -9 23 -20z m30 12 c-3 -3 0 -11 6 -19 17 -20 5
-16 -14 5 -15 16 -15 19 -2 19 8 0 13 -3 10 -5z m35 -17 c14 -19 14 -19 -2 -6
-10 7 -18 18 -18 24 0 6 1 8 3 6 1 -2 9 -13 17 -24z m45 16 c-3 -2 1 -11 7
-20 10 -12 7 -12 -8 2 -11 9 -23 14 -26 11 -3 -3 -8 -1 -11 3 -3 5 5 9 18 9
14 0 22 -2 20 -5z m32 2 c-4 -3 -1 -13 6 -22 11 -14 10 -14 -5 -2 -16 12 -16
31 -1 31 4 0 3 -3 0 -7z"/>
<path d="M3675 490 c16 -31 32 -42 22 -15 -4 8 -2 17 4 20 14 9 1 25 -22 25
-18 0 -19 -2 -4 -30z"/>
<path d="M4228 895 c-7 -13 -28 -50 -47 -82 -61 -105 -91 -163 -86 -163 3 0
-2 -12 -12 -27 -18 -28 -25 -71 -12 -78 9 -6 27 44 23 67 -1 10 3 16 9 15 7
-1 11 4 9 11 -1 7 4 25 13 41 8 16 11 32 7 36 -4 5 -2 5 5 1 6 -3 16 1 21 10
8 15 10 15 15 0 4 -9 1 -15 -6 -13 -7 1 -11 -4 -9 -11 1 -8 -2 -11 -9 -6 -9 5
-10 2 -6 -10 5 -11 3 -15 -5 -10 -8 5 -9 2 -5 -10 5 -11 3 -15 -5 -10 -7 5 -9
2 -5 -8 3 -9 0 -21 -6 -27 -6 -6 -12 -21 -14 -33 -2 -12 -9 -31 -17 -42 -11
-18 -4 -36 72 -167 l85 -148 29 15 29 15 -20 32 c-56 91 -164 283 -164 292 0
6 17 38 37 73 90 156 105 182 93 176 -7 -4 1 5 16 21 31 32 31 44 -1 56 -17 6
-24 3 -34 -16z m48 3 c4 4 -6 -10 -24 -30 -17 -21 -29 -44 -26 -51 3 -8 -2
-20 -10 -27 -9 -7 -13 -17 -9 -24 4 -6 -1 -5 -10 3 -9 7 -17 19 -16 25 0 7 2
6 6 -2 2 -6 9 -9 14 -6 6 3 5 12 -3 22 -12 15 -11 16 5 3 20 -15 23 -2 5 18
-10 11 -10 13 0 7 11 -6 17 5 13 27 0 4 5 6 12 5 7 -2 11 6 11 20 -1 16 2 20
11 12 6 -5 16 -6 21 -2z m-87 -142 c8 -10 9 -16 1 -21 -6 -4 -9 -1 -8 7 2 7
-3 12 -10 10 -8 -1 -11 2 -7 8 8 13 10 13 24 -4z"/>
<path d="M0 699 l0 -130 32 3 33 3 0 98 c0 53 3 97 7 97 19 0 38 -64 38 -130
l0 -71 31 3 c32 3 32 3 35 70 3 64 21 119 44 133 6 4 10 -31 10 -99 l0 -106
30 0 30 0 0 130 0 130 -44 0 c-37 0 -48 -5 -72 -33 l-29 -32 -28 32 c-25 28
-36 33 -73 33 l-44 0 0 -131z"/>
<path d="M340 699 l0 -130 32 3 c24 2 38 12 55 37 l23 34 0 -37 c0 -35 1 -36
35 -36 l36 0 -3 128 -3 127 -30 0 c-29 0 -30 -2 -36 -55 -6 -59 -21 -104 -38
-115 -8 -4 -11 23 -11 84 l0 91 -30 0 -30 0 0 -131z"/>
<path d="M568 823 c-2 -5 -4 -62 -3 -128 l0 -120 33 -3 32 -3 0 60 c0 58 1 61
25 61 24 0 25 -3 25 -60 l0 -60 30 0 30 0 0 130 0 130 -30 0 c-29 0 -30 -2
-30 -45 0 -25 -3 -45 -7 -46 -5 0 -16 -2 -25 -4 -15 -3 -18 4 -18 46 0 48 -1
49 -29 49 -17 0 -31 -3 -33 -7z"/>
<path d="M812 814 c-20 -14 -22 -23 -22 -113 0 -118 9 -131 87 -131 59 0 83
20 86 71 2 31 0 34 -30 37 -31 3 -33 1 -33 -27 0 -26 -4 -31 -25 -31 -25 0
-25 1 -25 81 0 78 1 80 23 77 14 -2 23 -11 25 -25 3 -18 10 -23 31 -23 15 0
30 3 33 6 10 9 -11 68 -29 82 -23 17 -94 15 -121 -4z"/>
<path d="M1007 822 c-3 -4 -5 -62 -6 -130 l0 -122 34 0 35 0 0 53 c0 30 3 57
7 60 14 14 33 -17 39 -64 6 -46 8 -49 35 -49 26 0 29 3 29 32 0 17 -9 51 -20
74 l-21 42 21 34 c11 18 20 43 20 56 0 18 -6 22 -29 22 -25 0 -30 -5 -35 -32
-4 -18 -15 -44 -26 -58 l-20 -25 0 58 c0 56 0 57 -29 57 -17 0 -32 -3 -34 -8z"/>
<path d="M1227 823 c-4 -3 -7 -62 -7 -130 l0 -123 34 0 c29 0 38 6 58 38 l23
37 3 -37 c3 -35 6 -38 33 -38 19 0 29 5 30 15 0 8 1 62 1 120 0 58 -1 110 -1
115 -1 6 -14 10 -30 10 -27 0 -28 -2 -34 -58 -2 -32 -13 -74 -23 -93 l-19 -34
-3 93 -3 92 -28 0 c-15 0 -31 -3 -34 -7z"/>
<path d="M1457 823 c-4 -3 -7 -62 -7 -130 l0 -124 33 3 c32 3 32 3 32 58 0 49
2 55 23 58 21 3 22 0 22 -57 l0 -61 35 0 35 0 0 131 0 130 -32 -3 c-31 -3 -33
-6 -38 -48 -4 -37 -9 -45 -25 -45 -16 0 -20 7 -21 35 -2 58 -3 60 -27 60 -13
0 -27 -3 -30 -7z"/>
<path d="M1670 806 c0 -12 10 -38 23 -57 23 -34 23 -34 4 -60 -11 -15 -22 -48
-24 -73 -6 -46 -6 -46 26 -46 27 0 31 4 31 25 0 14 7 42 15 62 21 50 42 31 40
-37 l-2 -50 34 0 33 0 0 54 c0 30 4 57 9 61 15 8 32 -31 34 -76 1 -37 3 -39
36 -39 l34 0 -7 48 c-3 26 -15 58 -25 73 -18 24 -18 26 0 51 11 14 22 40 25
58 7 31 6 31 -27 28 -29 -3 -34 -8 -40 -35 -3 -18 -13 -40 -20 -50 -12 -14
-15 -11 -19 33 -5 47 -6 49 -35 49 -29 0 -30 -1 -30 -51 0 -36 -3 -50 -11 -47
-15 5 -44 64 -44 87 0 11 -9 16 -30 16 -25 0 -30 -4 -30 -24z"/>
<path d="M2000 700 l0 -130 30 0 30 0 0 105 0 105 25 0 25 0 0 -105 0 -105 35
0 35 0 0 130 0 130 -90 0 -90 0 0 -130z"/>
<path d="M2220 701 l0 -131 35 0 c33 0 35 2 35 35 0 32 2 35 29 35 17 0 42 10
56 23 22 18 27 31 27 71 0 71 -22 89 -112 94 l-70 4 0 -131z m109 65 c20 -24
10 -70 -16 -74 -21 -3 -23 1 -23 42 0 48 16 60 39 32z"/>
<path d="M2460 810 c-17 -17 -20 -33 -20 -110 0 -77 3 -93 20 -110 25 -25 110
-28 134 -5 21 21 29 74 23 147 -4 48 -10 66 -27 80 -31 25 -104 24 -130 -2z
m90 -110 c0 -79 0 -80 -25 -80 -24 0 -25 2 -25 73 0 79 3 87 32 87 16 0 18 -9
18 -80z"/>
<path d="M2660 700 l0 -130 70 0 c68 0 70 1 70 25 0 23 -4 25 -41 25 -39 0
-40 1 -37 33 3 29 6 32 41 35 33 3 38 6 35 25 -2 18 -10 22 -38 22 -29 0 -36
4 -38 23 -3 20 1 22 37 22 37 0 41 2 41 25 0 24 -2 25 -70 25 l-70 0 0 -130z"/>
<path d="M2840 700 l0 -130 30 0 c30 0 30 1 30 54 0 39 4 55 15 60 16 6 35
-28 35 -64 0 -36 12 -50 42 -50 30 0 30 0 24 43 -4 23 -15 56 -25 73 -18 30
-18 31 0 56 11 14 22 40 25 58 7 31 6 31 -27 28 -29 -3 -34 -7 -40 -37 -4 -18
-16 -43 -28 -54 l-21 -21 0 57 c0 57 0 57 -30 57 l-30 0 0 -130z"/>
<path d="M3040 805 c0 -20 5 -25 25 -25 l25 0 0 -105 0 -105 30 0 30 0 0 105
0 105 26 0 c21 0 25 4 22 23 -3 20 -9 22 -80 25 -78 3 -78 3 -78 -23z"/>
<path d="M3805 606 c-27 -20 -15 -51 20 -51 23 0 31 5 33 22 4 29 -28 47 -53
29z"/>
<path d="M3926 612 c-6 -10 -2 -39 7 -49 4 -4 7 7 5 25 -2 34 -4 37 -12 24z"/>
<path d="M3 491 c2 -25 5 -26 74 -27 46 -1 70 3 66 9 -4 6 -1 7 8 1 16 -10 39
-14 39 -7 0 2 -4 13 -10 23 -7 14 -6 18 5 16 8 -1 18 -6 22 -11 5 -4 2 -5 -6
0 -11 6 -13 4 -8 -9 4 -10 7 -20 7 -22 0 -2 5 -4 11 -4 5 0 8 4 4 9 -3 5 -1
12 5 16 6 4 7 11 4 17 -4 7 -2 8 5 4 9 -6 9 -11 1 -21 -7 -8 -7 -16 -2 -19 11
-6 27 22 23 39 -2 5 1 6 5 2 11 -11 14 -38 3 -31 -5 3 -9 1 -9 -4 0 -4 110 -8
245 -8 l245 0 -5 24 c-2 14 -1 21 3 17 4 -3 8 -11 8 -16 1 -5 2 -12 3 -17 0
-4 30 -8 66 -8 46 0 64 3 61 11 -2 7 0 18 5 26 8 12 10 12 8 -1 -3 -27 1 -40
10 -40 6 0 8 9 6 20 -2 11 0 22 4 25 5 2 8 -3 7 -13 0 -9 3 -19 9 -22 5 -3 10
2 11 10 2 31 5 33 24 15 11 -10 17 -22 14 -26 -4 -7 16 -7 44 0 1 1 -2 11 -8
24 -11 21 -10 21 4 3 9 -10 13 -23 10 -28 -3 -4 5 -6 18 -4 17 2 22 9 21 27
-2 22 -2 22 6 4 5 -11 7 -23 5 -26 -2 -4 18 -6 44 -4 35 1 46 5 43 16 -2 8 -4
19 -4 25 0 6 -11 12 -23 12 -13 -1 -21 -4 -19 -9 3 -4 1 -10 -5 -14 -6 -4 -8
-11 -5 -16 10 -15 -1 -10 -15 7 -8 8 -9 14 -3 12 6 -2 10 2 10 7 -1 7 -192 10
-549 11 l-547 0 2 -25z m52 7 c3 -3 -3 -11 -12 -19 -10 -7 -15 -9 -11 -5 4 5
3 15 -3 22 -7 9 -6 12 5 10 9 -1 18 -5 21 -8z m31 -12 c1 -7 -4 -13 -12 -13
-9 0 -11 4 -4 12 5 7 8 15 5 18 -3 4 -2 5 2 2 4 -3 8 -11 9 -19z m49 14 c9 7
17 5 26 -7 13 -16 12 -17 -3 -5 -14 11 -18 10 -27 -5 -6 -11 -11 -13 -11 -5 0
7 -4 11 -8 8 -5 -3 -9 2 -9 10 0 10 4 11 10 5 7 -7 15 -7 22 -1z m181 -5 c-5
15 -4 17 5 8 15 -15 2 -38 -15 -24 -7 6 -15 9 -18 6 -2 -3 -5 2 -5 10 0 13 4
12 20 -2 20 -17 20 -17 13 2z m37 -10 c-7 -21 -12 -19 -10 4 0 11 5 18 9 15 4
-3 5 -11 1 -19z m53 0 c2 -13 0 -15 -8 -7 -9 9 -16 8 -27 -1 -14 -10 -14 -10
-4 4 7 9 10 18 7 22 -3 3 2 4 12 3 9 -2 19 -11 20 -21z m30 -1 c1 -9 0 -13 -4
-10 -3 4 -7 14 -8 22 -1 9 0 13 4 10 3 -4 7 -14 8 -22z m30 0 c1 -9 0 -13 -4
-10 -3 4 -7 14 -8 22 -1 9 0 13 4 10 3 -4 7 -14 8 -22z m50 11 c-5 15 -4 17 5
8 15 -15 2 -38 -15 -24 -7 6 -15 9 -18 6 -2 -3 -5 2 -5 10 0 13 4 12 20 -2 20
-17 20 -17 13 2z m37 -10 c-7 -21 -12 -19 -10 4 0 11 5 18 9 15 4 -3 5 -11 1
-19z m58 8 c8 -8 8 -13 0 -18 -6 -3 -10 -3 -9 2 2 4 -1 9 -7 10 -5 0 -9 -2 -8
-6 1 -4 -5 -8 -12 -8 -10 0 -12 4 -5 12 5 7 7 14 4 18 -3 3 1 4 10 3 9 -1 21
-7 27 -13z m46 2 c5 -4 2 -5 -6 0 -11 6 -13 4 -8 -8 9 -23 0 -21 -13 2 -7 15
-7 19 5 17 8 -1 18 -6 22 -11z m27 6 c3 -5 -2 -15 -12 -22 -15 -12 -16 -12 -5
2 7 9 10 19 6 22 -3 4 -4 7 0 7 3 0 8 -4 11 -9z m32 -15 c1 -7 -4 -13 -12 -13
-9 0 -11 4 -4 12 5 7 8 15 5 18 -3 4 -2 5 2 2 4 -3 8 -11 9 -19z m80 0 c2 -13
-1 -14 -10 -7 -7 6 -15 9 -18 6 -2 -3 -5 1 -5 9 0 20 30 13 33 -8z m30 -2 c1
-9 0 -13 -4 -10 -3 4 -7 14 -8 22 -1 9 0 13 4 10 3 -4 7 -14 8 -22z m34 11
c-5 -7 -9 -14 -7 -16 1 -2 0 -3 -2 -1 -11 7 -7 29 5 29 9 0 11 -4 4 -12z m131
-2 c13 -16 12 -17 -3 -4 -10 7 -18 15 -18 17 0 8 8 3 21 -13z m56 2 c0 -8 -4
-12 -9 -9 -5 3 -6 10 -3 15 9 13 12 11 12 -6z m97 -16 c-3 -5 -10 -7 -15 -3
-5 3 -7 10 -3 15 3 5 10 7 15 3 5 -3 7 -10 3 -15z"/>
<path d="M1166 513 c-3 -3 -1 -13 4 -23 5 -10 6 -20 3 -24 -3 -3 -2 -6 4 -6
17 0 23 13 11 27 -6 7 -8 16 -4 20 3 3 6 1 6 -6 0 -7 4 -10 9 -6 6 3 8 -3 6
-13 -3 -15 4 -18 45 -18 48 -1 54 5 35 36 -8 13 -6 13 8 2 9 -8 15 -19 14 -25
-2 -11 41 -19 56 -10 4 3 3 11 -3 18 -7 8 -7 15 -1 19 12 8 19 -4 16 -27 -2
-10 2 -16 8 -14 7 2 11 13 11 25 -1 12 2 19 7 17 4 -3 6 -13 4 -23 -3 -16 5
-18 70 -18 61 0 72 2 70 15 -2 9 -4 18 -4 20 -1 3 -7 -3 -14 -14 -10 -13 -16
-15 -21 -6 -4 6 -13 8 -19 4 -7 -4 -6 0 2 10 14 18 26 23 16 8 -3 -5 -1 -12 4
-15 5 -3 12 1 15 10 4 9 11 12 18 7 18 -11 32 -10 40 2 4 5 6 0 5 -12 -1 -16
-5 -19 -13 -12 -8 7 -14 6 -19 -1 -8 -13 -14 -11 81 -14 82 -3 87 -1 74 34 -1
3 -2 8 -1 13 1 9 -13 9 -22 0 -4 -3 -2 -12 5 -20 6 -7 8 -16 4 -20 -3 -3 -6
-1 -6 6 0 7 -4 10 -9 6 -6 -3 -8 4 -6 15 4 18 0 21 -28 17 -18 -2 -31 -8 -29
-13 3 -12 25 -12 34 1 4 5 6 0 5 -12 -1 -14 -5 -19 -12 -14 -5 5 -18 7 -27 6
-11 -2 -15 3 -13 14 3 16 -10 17 -145 18 -96 0 -147 -4 -143 -10 4 -6 1 -7 -8
-1 -15 10 -134 16 -143 7z m70 -29 c1 -9 0 -13 -4 -10 -3 4 -7 14 -8 22 -1 9
0 13 4 10 3 -4 7 -14 8 -22z m43 -8 c0 -7 -2 -6 -6 2 -2 6 -8 10 -12 8 -4 -3
-8 1 -8 9 0 11 4 12 14 4 7 -6 13 -17 12 -23z m52 7 c-12 -20 -14 -14 -5 12 4
9 9 14 11 11 3 -2 0 -13 -6 -23z m105 1 c1 -9 0 -13 -4 -10 -3 4 -7 14 -8 22
-1 9 0 13 4 10 3 -4 7 -14 8 -22z m34 11 c-5 -7 -9 -14 -7 -16 1 -2 0 -3 -2
-1 -11 7 -7 29 5 29 9 0 11 -4 4 -12z"/>
<path d="M1717 514 c-4 -4 -3 -12 1 -18 4 -6 7 -14 7 -18 0 -5 5 -8 10 -7 6 1
8 6 6 13 -2 6 -4 17 -4 24 0 13 -10 16 -20 6z"/>
<path d="M1747 514 c-3 -4 -2 -14 3 -24 5 -10 7 -19 5 -22 -3 -3 16 -4 42 -4
44 1 47 3 48 29 1 16 -3 26 -9 24 -6 -2 -11 -13 -10 -24 1 -13 -4 -20 -13 -19
-17 3 -34 27 -27 38 6 9 -30 11 -39 2z m27 -20 c3 -8 2 -12 -4 -9 -6 3 -10 10
-10 16 0 14 7 11 14 -7z"/>
<path d="M1796 512 c-2 -4 -1 -14 5 -22 5 -8 9 -13 10 -10 0 3 2 13 4 23 3 17
-10 24 -19 9z"/>
<path d="M1859 518 c-1 -2 -2 -14 -3 -28 -3 -25 0 -26 50 -27 29 0 53 2 52 6
0 3 1 8 2 11 8 21 7 41 -2 38 -6 -2 -12 -12 -14 -22 -1 -10 -5 -21 -9 -24 -3
-4 -4 6 -1 21 3 19 1 27 -7 24 -7 -2 -12 -10 -13 -18 -2 -29 -4 -31 -17 -20
-8 6 -17 8 -20 5 -4 -4 -5 3 -2 15 2 11 0 21 -6 21 -5 0 -9 -1 -10 -2z"/>
<path d="M1886 511 c-3 -5 1 -14 9 -21 11 -9 14 -8 12 9 -1 22 -12 28 -21 12z"/>
<path d="M1976 511 c-4 -5 -2 -12 3 -15 5 -4 12 -2 15 3 4 5 2 12 -3 15 -5 4
-12 2 -15 -3z"/>
<path d="M2001 513 c1 -5 0 -10 -1 -13 -10 -28 -6 -39 13 -36 12 2 20 7 19 12
-2 5 -9 8 -15 6 -7 -2 -6 2 1 11 7 8 9 17 5 20 -9 9 -23 9 -22 0z"/>
<path d="M2035 501 c2 -9 4 -18 5 -21 1 -3 2 -8 1 -12 -1 -10 13 -10 22 -1 4
3 2 12 -5 20 -6 7 -8 16 -4 20 3 3 6 1 6 -7 0 -10 3 -10 14 -1 10 8 16 9 21 1
4 -6 1 -9 -5 -8 -7 2 -14 -5 -15 -14 -2 -10 1 -18 6 -18 5 0 9 6 9 13 0 7 3 8
8 2 11 -15 54 -15 48 1 -6 15 18 37 28 26 11 -10 30 -9 38 3 4 5 6 0 5 -12 -1
-16 -5 -19 -13 -12 -8 7 -14 6 -19 -1 -8 -12 -11 -12 56 -15 56 -2 64 3 47 31
-4 6 -1 11 6 11 7 0 13 -10 12 -21 -1 -19 5 -21 71 -22 40 -1 72 2 71 5 0 3 1
8 2 11 13 35 9 37 -96 36 -62 -1 -104 -5 -104 -11 0 -5 5 -10 10 -10 6 0 10
-3 10 -7 0 -5 0 -11 0 -14 0 -4 -6 -1 -13 5 -8 6 -17 8 -20 5 -4 -4 -5 2 -3
13 4 19 -2 20 -99 20 -89 0 -102 -2 -100 -16z m95 -6 c-5 -7 -9 -14 -7 -16 1
-2 0 -3 -2 -1 -11 7 -7 29 5 29 9 0 11 -4 4 -12z m203 -5 c3 -11 1 -18 -4 -14
-5 3 -9 12 -9 20 0 20 7 17 13 -6z m97 -5 c-7 -8 -17 -12 -24 -8 -18 12 -48
14 -41 3 9 -15 -1 -12 -14 4 -9 11 -3 13 34 11 25 -1 45 3 45 8 0 6 3 7 6 4 4
-4 1 -13 -6 -22z"/>
<path d="M2465 512 c-10 -10 7 -21 23 -16 10 4 13 2 7 -3 -14 -11 -17 -33 -5
-33 6 0 10 6 10 13 0 8 3 8 8 2 4 -6 34 -11 67 -11 48 0 63 4 77 21 16 20 15
35 -3 35 -6 0 -8 -4 -5 -9 3 -4 -3 -16 -13 -25 -13 -12 -21 -14 -26 -6 -3 5
-10 8 -14 6 -4 -3 -8 1 -8 9 0 9 5 11 11 7 15 -11 37 -9 34 3 -3 10 -154 16
-163 7z m101 -25 c3 -21 1 -21 -20 2 -17 19 -17 19 0 17 9 -2 18 -10 20 -19z
m-35 -4 c13 -16 12 -17 -3 -4 -17 13 -22 21 -14 21 2 0 10 -8 17 -17z"/>
<path d="M3814 508 c-3 -4 -1 -8 5 -8 5 0 11 -7 13 -16 2 -13 8 -10 28 10 l24
27 -33 -3 c-18 -1 -35 -6 -37 -10z"/>
<path d="M943 481 c1 -22 12 -28 21 -12 3 5 -1 14 -9 21 -11 9 -14 8 -12 -9z"/>
<path d="M2157 494 c-7 -8 3 -34 13 -34 9 0 8 26 -1 35 -3 3 -8 2 -12 -1z"/>
<path d="M2823 481 c1 -22 12 -28 21 -12 3 5 -1 14 -9 21 -11 9 -14 8 -12 -9z"/>
<path d="M3421 486 c-8 -10 -9 -16 -1 -21 5 -3 10 -5 11 -3 4 18 7 38 4 38 -1
0 -8 -6 -14 -14z"/>
<path d="M1966 481 c-4 -5 -2 -12 3 -15 5 -4 12 -2 15 3 4 5 2 12 -3 15 -5 4
-12 2 -15 -3z"/>
<path d="M2456 481 c-4 -5 -2 -12 3 -15 5 -4 12 -2 15 3 4 5 2 12 -3 15 -5 4
-12 2 -15 -3z"/>
<path d="M4030 454 c0 -6 -7 -19 -16 -30 -8 -10 -12 -12 -8 -4 7 13 5 13 -8 2
-15 -12 -15 -15 0 -30 9 -9 43 -63 76 -120 32 -56 60 -102 63 -102 4 0 44 20
51 25 3 3 -136 245 -149 260 -6 5 -9 5 -9 -1z"/>
<path d="M6 362 c-2 -4 -1 -14 3 -21 6 -10 10 -9 14 3 6 16 -8 32 -17 18z"/>
<path d="M3773 355 c0 -8 6 -15 13 -15 8 0 11 6 8 15 -4 8 -9 15 -13 15 -4 0
-8 -7 -8 -15z"/>
</g>
</svg>
